<svg width="31" height="40" viewBox="0 0 31 40" fill="none" xmlns="http://www.w3.org/2000/svg">
<path d="M22.5 12.7485C22.5 16.7684 19.2993 20.0272 15.3511 20.0272C11.4028 20.0272 8.5 16.7849 8.5 12.7649C9.06144 10.2746 11.9621 2.54236 15.6489 0.0271825C19.0602 2.73138 21.8099 10.6139 22.5 12.7485Z" fill="black"/>
<path d="M14 32.7213C14 36.7412 10.7993 40 6.85106 40C2.90282 40 0 36.7577 0 32.7378C0.561435 30.2474 3.4621 22.5152 7.14894 20C10.5602 22.7042 13.3099 30.5867 14 32.7213Z" fill="black"/>
<path d="M31 32.7213C31 36.7412 27.7993 40 23.8511 40C19.9028 40 17 36.7577 17 32.7378C17.5614 30.2474 20.4621 22.5152 24.1489 20C27.5602 22.7042 30.3099 30.5867 31 32.7213Z" fill="black"/>
</svg>
